<?xml version="1.0" encoding="UTF-8"?>
<svg width="14px" height="14px" viewBox="0 0 14 14" version="1.1" xmlns="http://www.w3.org/2000/svg" xmlns:xlink="http://www.w3.org/1999/xlink">
    <title>Combined Shape Copy</title>
    <g id="Symbols" stroke="none" stroke-width="1" fill="none" fill-rule="evenodd">
        <g id="Dsk-/-Molecules-/-Nav-/-0-Home" transform="translate(-821.000000, -9.000000)" fill="#FFFFFF" fill-rule="nonzero">
            <g id="Dsk-/-Molecules-/-Nav-/-Top-Bar" transform="translate(222.000000, 0.000000)">
                <g id="For-HCPs" transform="translate(599.000000, 9.000000)">
                    <path d="M5.69071121,0 C5.78219492,0.00231389354 5.86897879,0.0410148556 5.93183327,0.107527534 C5.99468775,0.174040213 6.0284227,0.262872399 6.02556315,0.354340673 L6.02556315,0.354340673 L6.02556315,1.77170337 C6.0284227,1.86317164 5.99468775,1.95200383 5.93183327,2.01851651 C5.86897879,2.08502918 5.78219492,2.12373015 5.69071121,2.12604404 L5.69071121,2.12604404 L2.11541382,2.12604404 L2.11541382,11.891673 L11.873956,11.891673 L11.873956,8.3146039 C11.8762699,8.22312019 11.9149708,8.13633632 11.9814835,8.07348184 C12.0479962,8.01062736 12.1368284,7.97689241 12.2282966,7.97975196 L12.2282966,7.97975196 L13.6456593,7.97975196 C13.832079,7.97969004 13.9845652,8.12824611 13.9893698,8.3146039 L13.9893698,8.3146039 L13.9893698,13.6793217 C13.9890289,13.7625743 13.9566758,13.8425055 13.8990129,13.9025563 L13.8990129,13.9025563 L13.8883827,13.9131865 L13.8392994,13.9512518 C13.7870466,13.9843181 13.7260653,14.0020802 13.6633764,14.0017756 L13.6633764,14.0017756 L0.334851936,14.0017756 C0.251240325,14.0015138 0.171074343,13.9684294 0.111617312,13.9096431 L0.111617312,13.9096431 L0.100987092,13.9096431 L0.092128575,13.8990129 C0.0339728149,13.8391397 0.000998401429,13.7592402 0,13.6757783 L0,13.6757783 L0,0.334851936 C0.00025789761,0.251240325 0.0333422711,0.171074343 0.092128575,0.111617312 L0.092128575,0.111617312 L0.100987092,0.100987092 L0.111617312,0.092128575 C0.171074343,0.0333422711 0.251240325,0.00025789761 0.334851936,0 L0.334851936,0 Z M13.6438876,0.00708237791 C13.7381712,0.00661538964 13.828755,0.0437393847 13.8955904,0.110242316 C13.9624259,0.176745247 14,0.267142723 14,0.361427487 L14,0.361427487 L14,5.76335105 C14,5.959048 13.8413563,6.11769172 13.6456593,6.11769172 L13.6456593,6.11769172 L12.2282966,6.11769172 C12.0325997,6.11769172 11.873956,5.959048 11.873956,5.76335105 L11.873956,5.76335105 L11.873956,3.63730701 L7.2622121,8.08428246 C7.12421512,8.2204987 6.90236043,8.2204987 6.76436345,8.08428246 L6.76436345,8.08428246 L5.76335105,7.08149835 C5.69572235,7.01489741 5.65764134,6.9239481 5.65764134,6.82903063 C5.65764134,6.73411315 5.69572235,6.64316384 5.76335105,6.5765629 L5.76335105,6.5765629 L10.3697798,2.13313085 L8.16223741,2.13313085 C7.96654046,2.13313085 7.80789674,1.97448713 7.80789674,1.77879018 L7.80789674,1.77879018 L7.80789674,0.361427487 C7.80789674,0.165730537 7.96654046,0.00708237791 8.16223741,0.00708237791 L8.16223741,0.00708237791 Z" id="Combined-Shape-Copy"></path>
                </g>
            </g>
        </g>
    </g>
</svg>