<?xml version="1.0" encoding="UTF-8"?>
<svg width="16px" height="16px" viewBox="0 0 16 16" version="1.1" xmlns="http://www.w3.org/2000/svg" xmlns:xlink="http://www.w3.org/1999/xlink">
    <title>Shape Copy</title>
    <g id="Symbols" stroke="none" stroke-width="1" fill="none" fill-rule="evenodd">
        <g id="Dsk-/-Molecules-/-Nav-/-0-Home" transform="translate(-252.000000, -8.000000)" fill="#FFFFFF">
            <g id="Dsk-/-Molecules-/-Nav-/-Top-Bar" transform="translate(222.000000, 0.000000)">
                <g id="ISI" transform="translate(30.000000, 8.000000)">
                    <path d="M7.97831978,0 C12.401084,0 16,3.59891599 16,7.97831978 C16,12.401084 12.401084,16 7.97831978,16 C3.59891599,16 0,12.401084 0,7.97831978 C0,3.59891599 3.59891599,0 7.97831978,0 Z M8.32520325,3.07859079 C9.06233062,3.07859079 9.62601626,3.68563686 9.62601626,4.37940379 C9.58265583,5.11653117 9.01897019,5.6802168 8.32520325,5.6802168 C7.58807588,5.6802168 7.02439024,5.07317073 7.02439024,4.37940379 C7.02439024,3.64227642 7.63143631,3.07859079 8.32520325,3.07859079 Z M10.1897019,11.8373984 C9.79945799,13.2682927 5.98373984,13.398374 6.24390244,11.4471545 C6.41734417,10.1463415 6.67750678,8.88888889 6.89430894,7.63143631 C7.02439024,6.80758808 6.50406504,7.06775068 6.02710027,6.89430894 C5.72357724,6.76422764 5.72357724,6.37398374 6.11382114,6.28726287 C6.59078591,6.15718157 8.28184282,6.24390244 8.84552846,6.24390244 C9.14905149,6.24390244 9.32249322,6.41734417 9.36585366,6.72086721 C9.36585366,6.98102981 9.32249322,7.19783198 9.27913279,7.45799458 C9.06233062,8.67208672 8.75880759,9.97289973 8.58536585,11.1869919 C8.58536585,11.4471545 8.62872629,11.9241192 9.01897019,11.8807588 C9.40921409,11.8807588 9.58265583,11.7073171 9.88617886,11.5772358 C10.0596206,11.4905149 10.2330623,11.6205962 10.1897019,11.8373984 Z" id="Shape-Copy"></path>
                </g>
            </g>
        </g>
    </g>
</svg>