<?xml version="1.0" encoding="UTF-8"?>
<svg width="12px" height="16px" viewBox="0 0 12 16" version="1.1" xmlns="http://www.w3.org/2000/svg" xmlns:xlink="http://www.w3.org/1999/xlink">
    <title>Mask</title>
    <g id="Symbols" stroke="none" stroke-width="1" fill="none" fill-rule="evenodd">
        <g id="Dsk-/-Molecules-/-Nav-/-0-Home" transform="translate(-473.000000, -8.000000)" fill="#FFFFFF">
            <g id="Dsk-/-Molecules-/-Nav-/-Top-Bar" transform="translate(222.000000, 0.000000)">
                <g id="PI" transform="translate(251.000000, 8.000000)">
                    <path d="M5.99846451,8 C5.9379724,7.65884861 5.93918224,7 5.97426767,7 C6.07589442,7 6.06621568,7.78678038 5.99846451,8 Z M5.90302067,9 C5.6581876,9.64433812 5.35294118,10.3811802 5,11 C5.58187599,10.7767145 6.24006359,10.4513557 7,10.3014354 C6.59618442,9.99521531 6.20826709,9.55502392 5.90302067,9 Z M3,12.9983858 C3,13.0182542 3.3782235,12.8642743 4,12 C3.80802292,12.1564634 3.16618911,12.608469 3,12.9983858 Z M7.75,5 L12,5 L12,15.25 C12,15.665625 11.665625,16 11.25,16 L0.75,16 C0.334375,16 0,15.665625 0,15.25 L0,0.75 C0,0.334375 0.334375,0 0.75,0 L7,0 L7,4.25 C7,4.6625 7.3375,5 7.75,5 Z M7.49891553,10.3710481 C6.87467451,9.98971116 6.45955424,9.46459149 6.16616096,8.68941485 C6.30661519,8.11115808 6.52822075,7.23283293 6.35967568,6.68270757 C6.21297904,5.76374816 5.03628473,5.85439382 4.86773965,6.47015914 C4.7116794,7.04216448 4.85525483,7.84859825 5.12055727,8.87695759 C4.75849748,9.73965417 4.22477141,10.8961677 3.8471056,11.5588187 C3.84398439,11.5588187 3.84398439,11.5619444 3.84086319,11.5619444 C2.99501661,11.9964184 1.54365626,12.9528864 2.13980642,13.6874288 C2.31459391,13.9031029 2.63919923,14 2.81086551,14 C3.36956122,14 3.92513572,13.4373718 4.71792181,12.0683098 C5.52319272,11.8026243 6.40649375,11.4712988 7.18367382,11.3431446 C7.86097532,11.7119786 8.6537614,11.9526585 9.18124506,11.9526585 C10.0926369,11.9526585 10.155061,10.9524305 9.79612246,10.5960993 C9.36227496,10.1710025 8.10130811,10.2929052 7.49891553,10.3710481 L7.49891553,10.3710481 Z M11.78125,3.28125 L8.71875,0.21875 C8.578125,0.078125 8.3875,0 8.1875,0 L8,0 L8,4 L12,4 L12,3.809375 C12,3.6125 11.921875,3.421875 11.78125,3.28125 Z M8.97600069,11.0367885 C9.06949608,11.0122739 8.91899131,10.9287427 8,10.9550732 C8.84601929,11.0985289 8.97600069,11.0367885 8.97600069,11.0367885 Z" id="Mask"></path>
                </g>
            </g>
        </g>
    </g>
</svg>